<svg version="1.1" xmlns="http://www.w3.org/2000/svg" viewBox="0 0 406.66668701171875 251.33334350585938" width="406.66668701171875" height="251.33334350585938">
  <!-- svg-source:excalidraw -->
  
  <defs>
    <style>
      @font-face {
        font-family: "Virgil";
        src: url("https://excalidraw.com/Virgil.woff2");
      }
      @font-face {
        font-family: "Cascadia";
        src: url("https://excalidraw.com/Cascadia.woff2");
      }
    </style>
  </defs>
  <rect x="0" y="0" width="406.66668701171875" height="251.33334350585938" fill="#ffffff"></rect><g stroke-linecap="round"><g transform="translate(10 94) rotate(0 46.66667175292969 -0.6666717529296875)"><path d="M0 0 C15.56 -0.22, 77.78 -1.11, 93.33 -1.33 M0 0 C15.56 -0.22, 77.78 -1.11, 93.33 -1.33" stroke="#000000" stroke-width="1" fill="none"></path></g></g><g stroke-linecap="round"><g transform="translate(105.33331298828125 93.33331298828125) rotate(0 115.66665649414062 -0.333343505859375)"><path d="M0 0 C38.56 -0.11, 192.78 -0.56, 231.33 -0.67" stroke="#000000" stroke-width="1.5" fill="none" stroke-dasharray="8 9"></path></g></g><g stroke-linecap="round"><g transform="translate(101.33334350585938 90) rotate(0 34.66667175292969 40)"><path d="M0 0 C11.56 13.33, 57.78 66.67, 69.33 80 M0 0 C11.56 13.33, 57.78 66.67, 69.33 80" stroke="#000000" stroke-width="1" fill="none"></path></g></g><g stroke-linecap="round"><g transform="translate(169.33334350585938 168.66665649414062) rotate(0 40.66667175292969 -0.3333282470703125)"><path d="M0 0 C13.56 -0.11, 67.78 -0.56, 81.33 -0.67 M0 0 C13.56 -0.11, 67.78 -0.56, 81.33 -0.67" stroke="#000000" stroke-width="1" fill="none"></path></g></g><g stroke-linecap="round"><g transform="translate(250.66668701171875 169.33331298828125) rotate(0 21.666656494140625 -29.333328247070312)"><path d="M0 0 C7.22 -9.78, 36.11 -48.89, 43.33 -58.67 M0 0 C7.22 -9.78, 36.11 -48.89, 43.33 -58.67" stroke="#000000" stroke-width="1" fill="none"></path></g></g><g stroke-linecap="round"><g transform="translate(291.3333740234375 110) rotate(0 52.666656494140625 0)"><path d="M0 0 C17.56 0, 87.78 0, 105.33 0 M0 0 C17.56 0, 87.78 0, 105.33 0" stroke="#000000" stroke-width="1" fill="none"></path></g></g><g stroke-linecap="round"><g transform="translate(272 10) rotate(0 0 115.66667175292969)"><path d="M0 0 C0 38.56, 0 192.78, 0 231.33 M0 0 C0 38.56, 0 192.78, 0 231.33" stroke="#c92a2a" stroke-width="1" fill="none"></path></g></g><g transform="translate(282.6666259765625 138.99998474121094) rotate(0 35.5 12.5)"><text x="0" y="18" font-family="Virgil, Segoe UI Emoji" font-size="20px" fill="#c92a2a" text-anchor="start" style="white-space: pre;" direction="ltr">A (ωc*)</text></g><g transform="translate(303.3333740234375 77.66665649414062) rotate(0 6.5 11.5)"><text x="0" y="18" font-family="Helvetica, Segoe UI Emoji" font-size="20px" fill="#c92a2a" text-anchor="start" style="white-space: pre;" direction="ltr">B</text></g><g transform="translate(241.3333740234375 179.66665649414062) rotate(0 7.5 11.5)"><text x="0" y="18" font-family="Helvetica, Segoe UI Emoji" font-size="20px" fill="#c92a2a" text-anchor="start" style="white-space: pre;" direction="ltr">C</text></g><g transform="translate(152 183) rotate(0 7.5 11.5)"><text x="0" y="18" font-family="Helvetica, Segoe UI Emoji" font-size="20px" fill="#c92a2a" text-anchor="start" style="white-space: pre;" direction="ltr">D</text></g><g transform="translate(82 54.33331298828125) rotate(0 6.5 11.5)"><text x="0" y="18" font-family="Helvetica, Segoe UI Emoji" font-size="20px" fill="#c92a2a" text-anchor="start" style="white-space: pre;" direction="ltr">E</text></g></svg>